<svg id="Capa_1" data-name="Capa 1" xmlns="http://www.w3.org/2000/svg" viewBox="0 0 208.28 267.89"><defs><style>.cls-1{font-size:40.5px;fill:#ff5100;font-family:RotisSansSerifStd, Rotis SansSerif Std;letter-spacing:0.01em;}.cls-2{letter-spacing:-0.04em;}.cls-3{letter-spacing:-0.02em;}.cls-15,.cls-4,.cls-8{fill:#1d1d1b;}.cls-4{letter-spacing:-0.04em;}.cls-5{letter-spacing:-0.06em;}.cls-6{letter-spacing:-0.01em;}.cls-7{letter-spacing:0.03em;}.cls-8{letter-spacing:-0.03em;}.cls-9{letter-spacing:-0.04em;}.cls-10{letter-spacing:-0.03em;}.cls-11{letter-spacing:-0.01em;}.cls-12{letter-spacing:-0.05em;}.cls-13{letter-spacing:0em;}.cls-14{letter-spacing:0.01em;}</style></defs><title>Artboard 2</title><text class="cls-1" transform="translate(65.21 176.08)">C<tspan class="cls-2" x="22.03" y="0">i</tspan><tspan class="cls-3" x="30.33" y="0">ma</tspan><tspan class="cls-4"><tspan x="-49.19" y="37.4">U</tspan><tspan class="cls-5" x="-26.79" y="37.4">n</tspan><tspan class="cls-6" x="-8.77" y="37.4">i</tspan><tspan class="cls-3" x="0.67" y="37.4">ve</tspan><tspan class="cls-7" x="34.28" y="37.4">r</tspan><tspan class="cls-3" x="48.26" y="37.4">sidad</tspan></tspan><tspan class="cls-8"><tspan x="-43.27" y="74.79">d</tspan><tspan class="cls-3" x="-24.89" y="74.79">e </tspan><tspan class="cls-9" x="1.96" y="74.79">N</tspan><tspan class="cls-10" x="25.98" y="74.79">a</tspan><tspan class="cls-11" x="43.52" y="74.79">v</tspan><tspan class="cls-12" x="60.36" y="74.79">a</tspan><tspan class="cls-13" x="76.97" y="74.79">r</tspan><tspan class="cls-14" x="89.81" y="74.79">r</tspan><tspan class="cls-3" x="102.81" y="74.79">a</tspan></tspan></text><path class="cls-15" d="M104.37,11.38c-24,0-43.44,27.46-43.44,61.22s19.49,61.24,43.44,61.24,43.42-27.47,43.42-61.24S128.31,11.38,104.37,11.38ZM145.81,72.6c0,32.67-18.59,59.25-41.44,59.25S62.91,105.27,62.91,72.6s18.6-59.23,41.46-59.23S145.81,39.94,145.81,72.6Z"/><path class="cls-15" d="M86.66,115.2l-5.52,2.1a.16.16,0,0,0-.08.1.13.13,0,0,0,0,.12l.38.39a.11.11,0,0,0,.13,0l3.65-1.39-1.4,3.72a.12.12,0,0,0,0,.14l.61.63a.12.12,0,0,0,.09,0h0a.14.14,0,0,0,.1-.08l2.12-5.63a.13.13,0,0,0-.17-.17Z"/><path class="cls-15" d="M119.35,117.67a.12.12,0,0,0-.14,0,.15.15,0,0,0,0,.14l1.57,5.81a.14.14,0,0,0,.09.09h0l.08,0,.41-.35a.13.13,0,0,0,0-.14l-1-3.83,3.5,1.75a.12.12,0,0,0,.14,0l.68-.57a.11.11,0,0,0,0-.11.11.11,0,0,0-.07-.1Z"/><path class="cls-15" d="M65.94,73.5h0l5.43-2.37A.13.13,0,0,0,71.5,71a.14.14,0,0,0-.07-.12L66.1,68.3a.1.1,0,0,0-.12,0,.11.11,0,0,0-.06.11l0,.54a.14.14,0,0,0,.08.13l3.51,1.69-3.58,1.58a.12.12,0,0,0-.08.11l0,.9a.15.15,0,0,0,.06.11A.1.1,0,0,0,65.94,73.5Z"/><path class="cls-15" d="M93.25,120.61a.13.13,0,0,0-.17,0l-1,1.76a3.21,3.21,0,0,0-.46-.22l-.05-.25a11.78,11.78,0,0,0-.64-2.27,1.89,1.89,0,0,0-.76-.88,1.62,1.62,0,0,0-.35-.17,1.88,1.88,0,0,0-.53-.06.14.14,0,0,0-.12.1.13.13,0,0,0,.06.14,1.76,1.76,0,0,1,.28.25A3.22,3.22,0,0,1,90,120c.15.42.39,1.31.56,2a1.54,1.54,0,0,0-1.33.76,1.51,1.51,0,0,0-.15,1.23,2.43,2.43,0,0,0,1.15,1.21l1,.62.06,0h0a.11.11,0,0,0,.07-.06L94,121.2a.12.12,0,0,0,0-.1A.16.16,0,0,0,94,121Zm-2.46,4.09-.09,0a1.08,1.08,0,0,1-.5-1.46.83.83,0,0,1,.51-.44.71.71,0,0,1,.21,0,1.86,1.86,0,0,1,.84.26Z"/><path class="cls-15" d="M113.69,24.15a.16.16,0,0,0,.09,0l4.51-3.89a.12.12,0,0,0,0-.11.12.12,0,0,0-.07-.11l-.48-.23a.12.12,0,0,0-.14,0l-3,2.56.09-4a.13.13,0,0,0-.08-.12l-.79-.39a.11.11,0,0,0-.12,0,.11.11,0,0,0-.06.11l-.14,6a.12.12,0,0,0,.07.12Z"/><path class="cls-15" d="M119.5,27.38a.14.14,0,0,0,.18,0l2.7-3,.25,5.9a.13.13,0,0,0,0,.09l.18.16a.09.09,0,0,0,.08,0h0a.18.18,0,0,0,.09,0l3.49-3.86a.17.17,0,0,0,0-.1.18.18,0,0,0,0-.09l-.36-.33a.12.12,0,0,0-.18,0l-2.41,2.66-.17-5.23a.13.13,0,0,0,0-.09l-.54-.51a.12.12,0,0,0-.18,0l-3.49,3.85a.13.13,0,0,0,0,.1.15.15,0,0,0,0,.09Z"/><path class="cls-15" d="M125.71,33.83a.17.17,0,0,0,0,.1l.49.65a.12.12,0,0,0,.1.05.13.13,0,0,0,.08,0l4.07-3.2a.12.12,0,0,0,0-.18l-.49-.65a.1.1,0,0,0-.08-.05.12.12,0,0,0-.1,0l-4.07,3.2A.2.2,0,0,0,125.71,33.83Z"/><path class="cls-15" d="M129.25,39.89a.12.12,0,0,0,.11.07h0l5.88-.44a.14.14,0,0,0,.1-.07.15.15,0,0,0,0-.13l-.25-.48a.17.17,0,0,0-.12-.07l-3.88.3,2.36-3.18a.14.14,0,0,0,0-.14l-.42-.79a.14.14,0,0,0-.1-.07s-.08,0-.11.06l-3.58,4.8A.14.14,0,0,0,129.25,39.89Z"/><path class="cls-15" d="M134.71,45.34l.46,1.2a.14.14,0,0,0,.17.08l.41-.17a.14.14,0,0,0,.08-.17l-.47-1.2,1.54-.62.64,1.68a.16.16,0,0,0,.07.07.12.12,0,0,0,.1,0l.42-.17a.14.14,0,0,0,.07-.17l-1-2.56a.12.12,0,0,0-.07-.07.17.17,0,0,0-.1,0l-4.78,1.92a.13.13,0,0,0-.07.17l1,2.57a.13.13,0,0,0,.06.07h.1l.41-.17a.12.12,0,0,0,.07-.17L133.18,46Z"/><path class="cls-15" d="M138.79,60.15l.12.05-.12,0c-.22.56-.4,1.05-.83,1.12h-.2a.6.6,0,0,1-.53-.49.15.15,0,0,1,0-.07.93.93,0,0,1,0-.23,1.93,1.93,0,0,1,.52-1.14l.2-.2a.14.14,0,0,0,0-.15.11.11,0,0,0-.13-.07l-.95.15a.1.1,0,0,0-.08.05l0,0a2.13,2.13,0,0,0-.3,1.43,1.81,1.81,0,0,0,1.59,1.68l.21,0c1-.16,1.3-1,1.55-1.76s.36-1,.77-1.11a.61.61,0,0,1,.19,0,.59.59,0,0,1,.46.43s0,.07,0,.1a1.21,1.21,0,0,1,0,.19,1.77,1.77,0,0,1-.45,1l-.17.2a.13.13,0,0,0,.12.21l.91-.14a.16.16,0,0,0,.1-.08l0,0a2.24,2.24,0,0,0,.17-1.31,2,2,0,0,0-.51-1,1.3,1.3,0,0,0-1.19-.41C139.36,58.64,139,59.48,138.79,60.15Z"/><path class="cls-15" d="M137.17,66l.06.81a.13.13,0,0,0,0,.09.18.18,0,0,0,.09,0h0l5.12-.4a.14.14,0,0,0,.12-.14l-.06-.82a.11.11,0,0,0-.05-.09.09.09,0,0,0-.09,0l-5.13.4A.11.11,0,0,0,137.17,66Z"/><path class="cls-15" d="M142.78,70.65s-.06,0-.09-.72l-.45,1h-.13a.15.15,0,0,0-.14.13v1.87l-4.85-.05a.1.1,0,0,0-.09,0A.13.13,0,0,0,137,73v.79a.13.13,0,0,0,.13.13L142,74V75.4l.13.09s.06,0,.09-.56l.45,1h0a.72.72,0,0,1,.33-.53V70.74A1.54,1.54,0,0,1,142.78,70.65Z"/><path class="cls-15" d="M140.11,87c-.89-.18-1.47.49-1.94,1s-.73.86-1.15.77a1,1,0,0,1-.2-.07.58.58,0,0,1-.31-.72.86.86,0,0,1,.06-.23,1.9,1.9,0,0,1,.87-.88l.25-.12a.13.13,0,0,0,.08-.13.14.14,0,0,0-.11-.12l-.93-.19a.12.12,0,0,0-.1,0l0,0a2.11,2.11,0,0,0-.76,1.24A1.75,1.75,0,0,0,137,89.86c1,.2,1.58-.52,2.05-1.11s.7-.84,1.09-.76a.45.45,0,0,1,.18.07.59.59,0,0,1,.29.56.36.36,0,0,1,0,.1,1.21,1.21,0,0,1-.05.18,1.71,1.71,0,0,1-.76.78l-.22.13a.12.12,0,0,0-.07.13.14.14,0,0,0,.1.11l.91.18h0a.13.13,0,0,0,.09,0l0,0a2.2,2.2,0,0,0,.6-1.16,2,2,0,0,0-.13-1.15A1.32,1.32,0,0,0,140.11,87Z"/><path class="cls-15" d="M133,107.51a2.06,2.06,0,0,0-2.17.31c-.5.29-1,.55-1.33.33a.66.66,0,0,1-.26-.86l0-.06a1.33,1.33,0,0,1,.14-.19,1.87,1.87,0,0,1,1.11-.53l.28,0a.14.14,0,0,0,.11-.1.13.13,0,0,0-.06-.14l-.82-.5a.1.1,0,0,0-.09,0h0a2.07,2.07,0,0,0-1.12.9,2.29,2.29,0,0,0-.33,1.34,1.43,1.43,0,0,0,.67,1.12,2.07,2.07,0,0,0,2.3-.35c.51-.31.92-.56,1.27-.34a.59.59,0,0,1,.25.73l-.06.12a.76.76,0,0,1-.11.14,1.68,1.68,0,0,1-1,.48l-.25,0a.13.13,0,0,0-.1.11.12.12,0,0,0,.06.13l.79.49.07,0,.05,0,0,0a2,2,0,0,0,.95-.89,1.93,1.93,0,0,0,.26-1.1A1.35,1.35,0,0,0,133,107.51Z"/><path class="cls-15" d="M129.9,113.79a.12.12,0,0,0-.1,0,.12.12,0,0,0-.08,0l-1.12,1.39-3.53-3a.12.12,0,0,0-.18,0l-.51.63a.17.17,0,0,0,0,.1.14.14,0,0,0,.05.08l3.53,3-1.11,1.38a.14.14,0,0,0,0,.09.13.13,0,0,0,0,.09l.34.29a.16.16,0,0,0,.09,0,.12.12,0,0,0,.09,0l2.9-3.6a.13.13,0,0,0,0-.19Z"/><path class="cls-15" d="M114.75,121.25a.13.13,0,0,0-.17-.07l-1,.45a4.77,4.77,0,0,0-2.27,1.73,2.6,2.6,0,0,0-.15,2.49,2.17,2.17,0,0,0,2.24,1.49,6.75,6.75,0,0,0,2.21-.6l1.11-.48a.12.12,0,0,0,.07-.07.17.17,0,0,0,0-.1Zm.51,4.84c-1.67.68-2.76.35-3.33-1a1.72,1.72,0,0,1-.1-1.23,1.06,1.06,0,0,1,.27-.47,4.73,4.73,0,0,1,1.66-1.06l.23-.1,1.55,3.77Z"/><path class="cls-15" d="M107.08,123.39a.12.12,0,0,0-.1,0l-.8.08a.12.12,0,0,0-.11.14l.47,5.23a.14.14,0,0,0,0,.09.19.19,0,0,0,.08,0h0l.8-.08a.14.14,0,0,0,.12-.14l-.48-5.23A.13.13,0,0,0,107.08,123.39Z"/><path class="cls-15" d="M99.84,123.06a2.87,2.87,0,0,0-3.48,2.21,2.72,2.72,0,0,0,.42,2.14,3.41,3.41,0,0,0,2.62,1.25,2.81,2.81,0,0,0,2.86-2.27,2.68,2.68,0,0,0-.42-2.14A3.21,3.21,0,0,0,99.84,123.06Zm1.36,3.15a2.53,2.53,0,0,1-.52,1.21,1.39,1.39,0,0,1-.9.51,1.71,1.71,0,0,1-.6,0,2.09,2.09,0,0,1-1.46-1,2.18,2.18,0,0,1-.3-1.44,2.59,2.59,0,0,1,.53-1.21,1.34,1.34,0,0,1,.9-.51l.24,0a1.34,1.34,0,0,1,.35,0,2.21,2.21,0,0,1,1.76,2.46Z"/><path class="cls-15" d="M82.61,110.71l-.26-.42a.09.09,0,0,0-.08-.05.12.12,0,0,0-.1,0l-3,2,1.94-3.79a.12.12,0,0,0,0-.13l-.09-.14a.11.11,0,0,0-.11-.06l-3.94.08,2.79-1.81a.1.1,0,0,0,.06-.08.12.12,0,0,0,0-.1l-.43-.69a.13.13,0,0,0-.18,0l-4.34,2.81a.14.14,0,0,0,0,.18l.27.43s.07.08.11.07l4.53-.07-2.06,4a.15.15,0,0,0,0,.13l.39.64a.17.17,0,0,0,.11.06l.07,0,4.34-2.82A.13.13,0,0,0,82.61,110.71Z"/><path class="cls-15" d="M72.86,88.67,69,89.41l3.24-4.85,0,0a.12.12,0,0,0,0-.1l0-.23a.14.14,0,0,0-.15-.11L67,85a.16.16,0,0,0-.08.06.1.1,0,0,0,0,.09l.09.49a.13.13,0,0,0,.15.11l3.49-.66-2.93,4.3a.1.1,0,0,0,0,.09l.13.74a.19.19,0,0,0,0,.09l.08,0h0l5.06-1a.16.16,0,0,0,.08-.06.1.1,0,0,0,0-.09L73,88.78A.13.13,0,0,0,72.86,88.67Z"/><path class="cls-15" d="M73.4,52.8a.11.11,0,0,0-.12.09,2.37,2.37,0,0,1-.15.35,3.06,3.06,0,0,1-.72.72c-.34.28-1.1.77-1.7,1.15a1.54,1.54,0,0,0-1.11-1.06,1.39,1.39,0,0,0-1.19.22,2.49,2.49,0,0,0-.79,1.48L67.36,57a.14.14,0,0,0,.1.16l5,1.14h0l.07,0a.16.16,0,0,0,.06-.08l.17-.81a.12.12,0,0,0-.09-.15l-1.95-.44a3.24,3.24,0,0,0,.07-.52l.22-.12A10.92,10.92,0,0,0,73,54.81a1.8,1.8,0,0,0,.58-1,1.76,1.76,0,0,0,.06-.41,1.84,1.84,0,0,0-.1-.53A.12.12,0,0,0,73.4,52.8Zm-3.26,3.82-1.89-.43,0-.11c.07-.26.36-1.12,1.21-.93a.82.82,0,0,1,.56.37A1.57,1.57,0,0,1,70.14,56.62Z"/><path class="cls-15" d="M136.05,56.52l.09,0h.06a.14.14,0,0,0,.07-.14,2.63,2.63,0,0,1,0-.38,3.33,3.33,0,0,1,.31-1c.21-.49.74-1.44,1-1.84a1.48,1.48,0,0,0,1.47.41,1.42,1.42,0,0,0,1-.76,2.48,2.48,0,0,0,0-1.69L139.62,50a.1.1,0,0,0-.06-.08.12.12,0,0,0-.1,0l-5,1.41s-.06,0-.08.06a.11.11,0,0,0,0,.1l.21.79a.16.16,0,0,0,.06.08.17.17,0,0,0,.1,0l1.92-.54c0,.17.11.33.17.49l-.13.21a11.45,11.45,0,0,0-1.11,2.08,1.9,1.9,0,0,0,0,1.16,1.55,1.55,0,0,0,.13.38A1.93,1.93,0,0,0,136.05,56.52Zm3.14-5.45,0,.11c.06.27.2,1.16-.64,1.4a.89.89,0,0,1-.67,0,1.65,1.65,0,0,1-.59-.93Z"/><path class="cls-15" d="M77,43.92h.1a.11.11,0,0,0,.07-.06l1.17-2.49a.17.17,0,0,0,0-.1.11.11,0,0,0-.06-.07l-.4-.2a.13.13,0,0,0-.17.07l-.76,1.62L75.43,42,76,40.8a.14.14,0,0,0-.06-.18l-.4-.19a.13.13,0,0,0-.18.06l-.54,1.16-1.49-.73.76-1.62a.13.13,0,0,0-.06-.18l-.4-.19a.11.11,0,0,0-.1,0,.16.16,0,0,0-.07.07l-1.17,2.48a.14.14,0,0,0,.06.18Z"/><path class="cls-15" d="M79.85,38.33l.08,0h0a.16.16,0,0,0,.08-.06l.27-.41a.14.14,0,0,0,0-.19L77,35.45l5.66-1.2a.16.16,0,0,0,.08-.06l.13-.2a.14.14,0,0,0,0-.18l-4.29-2.9a.12.12,0,0,0-.1,0,.16.16,0,0,0-.08.06l-.26.41a.13.13,0,0,0,0,.18l3,2-5,1a.1.1,0,0,0-.08.06l-.41.63a.12.12,0,0,0,0,.1.16.16,0,0,0,.06.08Z"/><path class="cls-15" d="M84.34,28.66l0-.13,0,.13c.57-.15,1.07-.28,1.37,0a.61.61,0,0,1,.15.22.6.6,0,0,1-.06.62l-.1.11-.17.15a1.88,1.88,0,0,1-1.21.22l-.28,0a.13.13,0,0,0-.11.22l.67.7a.15.15,0,0,0,.09,0h0a2.12,2.12,0,0,0,1.3-.59,2.31,2.31,0,0,0,.64-1.21,1.46,1.46,0,0,0-.37-1.26A2.08,2.08,0,0,0,84,27.62c-.57.17-1,.31-1.32,0a.57.57,0,0,1-.11-.16.6.6,0,0,1,.07-.63.27.27,0,0,1,.07-.08l.14-.12a1.78,1.78,0,0,1,1.06-.21l.25,0a.14.14,0,0,0,.13-.08.14.14,0,0,0,0-.15l-.64-.67a.12.12,0,0,0-.12,0h0a2.07,2.07,0,0,0-1.14.61,1.93,1.93,0,0,0-.53,1,1.39,1.39,0,0,0,.37,1.23A2.05,2.05,0,0,0,84.34,28.66Z"/><path class="cls-15" d="M89.58,26.86a.13.13,0,0,0,.11.05.1.1,0,0,0,.07,0l.65-.48a.1.1,0,0,0,0-.08.12.12,0,0,0,0-.1l-3-4.27a.13.13,0,0,0-.18,0l-.65.48a.11.11,0,0,0,0,.09.1.1,0,0,0,0,.09Z"/><path class="cls-15" d="M93.44,21.86v0c.59.07,1.11.12,1.28.52,0,.07,0,.14.06.23a.63.63,0,0,1-.34.63l-.06,0-.22.08a1.84,1.84,0,0,1-1.2-.23L92.71,23a.12.12,0,0,0-.15,0,.14.14,0,0,0,0,.15l.39.89a.12.12,0,0,0,.07.07h0a1.42,1.42,0,0,0,.57.1,2.16,2.16,0,0,0,.86-.17,1.76,1.76,0,0,0,1.11-2.21,2.1,2.1,0,0,0-2.07-1.07c-.6-.05-1.08-.09-1.24-.47a.45.45,0,0,1,0-.19.58.58,0,0,1,.28-.57l.09,0,.17-.06a1.68,1.68,0,0,1,1.07.19l.23.11a.13.13,0,0,0,.17-.17l-.37-.86a.14.14,0,0,0-.09-.08h0a2,2,0,0,0-1.28.17,1.94,1.94,0,0,0-.83.75,1.35,1.35,0,0,0-.1,1.3C91.86,21.69,92.74,21.79,93.44,21.86Z"/><path class="cls-15" d="M74.62,49.93l-1.88-.65c.05-.18.09-.34.12-.51l.23-.1a11.15,11.15,0,0,0,2.06-1.08,1.78,1.78,0,0,0,.69-.94,1.64,1.64,0,0,0,.1-.38,1.84,1.84,0,0,0,0-.54.13.13,0,0,0-.11-.1.17.17,0,0,0-.13.08,1.66,1.66,0,0,1-.18.33,3.1,3.1,0,0,1-.79.64c-.37.24-1.18.65-1.82,1a1.56,1.56,0,0,0-1-1.19,1.39,1.39,0,0,0-1.2.09,2.44,2.44,0,0,0-1,1.39l-.38,1.17a.12.12,0,0,0,.08.16L74.28,51h.1a.12.12,0,0,0,.06-.08l.26-.77A.13.13,0,0,0,74.62,49.93Zm-2.48-.86-1.84-.64,0-.1c.1-.26.47-1.08,1.3-.79a.89.89,0,0,1,.53.42A1.68,1.68,0,0,1,72.14,49.07Z"/><path class="cls-15" d="M99.06,38.58a.6.6,0,0,0-.16.44.57.57,0,0,0,.19.43.58.58,0,0,0,.41.17.62.62,0,0,0,.45-.19.66.66,0,0,0,.17-.45.65.65,0,0,0-.19-.43A.62.62,0,0,0,99.06,38.58Z"/><path class="cls-15" d="M103.18,58.2h0c-.21-.86-.42-1.61-.64-2.3a21.62,21.62,0,0,0-.82-2.26.16.16,0,0,0-.19-.09.17.17,0,0,0-.12.17,21.57,21.57,0,0,0,.3,2.39c.13.72.28,1.48.49,2.34s.41,1.6.64,2.3a20.56,20.56,0,0,0,.82,2.25.18.18,0,0,0,.15.1h0a.16.16,0,0,0,.12-.16,21.43,21.43,0,0,0-.3-2.4C103.54,59.81,103.38,59,103.18,58.2Z"/><path class="cls-15" d="M107.35,66.25a.16.16,0,0,0-.16.14c-.15,1.25-.25,2.5-.34,3.72,0,.31,0,.62-.07.94l0,.16c-.12,1.45-.25,3-.47,4.39a12.85,12.85,0,0,1-1.24,4.19,4.83,4.83,0,0,1-.61.83,2.8,2.8,0,0,1-.79.61,4,4,0,0,1-2.06.42.17.17,0,0,0-.16.14.16.16,0,0,0,.1.18,4.13,4.13,0,0,0,1.3.22A3.74,3.74,0,0,0,104,82a4.18,4.18,0,0,0,2-1.58,8.2,8.2,0,0,0,1.08-2.24,14.83,14.83,0,0,0,.55-2.37,26.11,26.11,0,0,0,.28-4.74,35.74,35.74,0,0,0-.39-4.69C107.49,66.31,107.42,66.24,107.35,66.25Z"/><path class="cls-15" d="M107.38,63.41h0a.17.17,0,0,0,.16-.14c.18-1.16.32-2.33.45-3.47l.06-.57c.14-1.2.27-2.44.4-3.66.15-1.48.26-2.7.35-3.85v0c.09-1.26.19-2.57.19-3.87a.16.16,0,0,0-.13-.16.16.16,0,0,0-.18.1,30.59,30.59,0,0,0-1,3.8c-.25,1.27-.45,2.57-.58,3.87a38.41,38.41,0,0,0-.2,3.92,24.34,24.34,0,0,0,.32,3.92A.17.17,0,0,0,107.38,63.41Z"/><path class="cls-15" d="M103.35,63.84a.15.15,0,0,0-.2,0,.17.17,0,0,0,0,.21,4,4,0,0,0,1.56,1,6.51,6.51,0,0,0,1.79.42,9.69,9.69,0,0,0,1.09.06,12.43,12.43,0,0,0,2.5-.26,15.23,15.23,0,0,0,3.41-1.09h0a10.39,10.39,0,0,0,3-2,.17.17,0,0,0-.18-.27,24.16,24.16,0,0,1-3.19,1.24,29.67,29.67,0,0,1-3.27.84,18.06,18.06,0,0,1-3.31.38A6.75,6.75,0,0,1,103.35,63.84Z"/><path class="cls-15" d="M84.83,77.93h0a1.49,1.49,0,0,0-.69.22.16.16,0,0,0-.07.18,1.54,1.54,0,0,0,.36.64,1.29,1.29,0,0,0,.48.33,1.21,1.21,0,0,0,.5.1h.08a1.42,1.42,0,0,0,.68-.23.15.15,0,0,0,.08-.18,1.47,1.47,0,0,0-.36-.64,1.38,1.38,0,0,0-.48-.33A1.27,1.27,0,0,0,84.83,77.93Z"/><path class="cls-15" d="M119.32,104.23a21.51,21.51,0,0,0,.62-2.49c.08-.4.15-.82.22-1.26v-.07c.06-.4.12-.76.19-1.13A9.41,9.41,0,0,1,122.2,95a7.53,7.53,0,0,1,1.73-1.56,9.76,9.76,0,0,1,1.76-.94l.15.58c.13.47.25.93.37,1.4a.68.68,0,0,0,.39.44.66.66,0,0,0,.86-.37c.28-.7.55-1.42.81-2.22a3,3,0,0,1,.35.61,3.21,3.21,0,0,1,.28,1.43,3.42,3.42,0,0,1-.36,1.39,4.11,4.11,0,0,1-.82,1.17,8.32,8.32,0,0,1-1,.73l-.27.19A9,9,0,0,0,125.16,99l-.16.16-.16.19c-.09.12-.19.25-.27.38a6.47,6.47,0,0,0-.45.77,11.11,11.11,0,0,0-.66,1.63.69.69,0,0,0,.37.83l.79.35-.29.26-1.08,1c-.43.38-.86.78-1.28,1.17v0a12.92,12.92,0,0,1-.15-1.35c0-1,0-1.84-.08-2.69a.16.16,0,0,0-.31,0c-.13.85-.25,1.72-.36,2.67-.06.49-.1.93-.14,1.34l-.14,1.34a.52.52,0,0,0,.11.38.5.5,0,0,0,.71.08l0,0,.77-.62c.49-.39,1-.79,1.48-1.2l1.12-.92.75-.63.36-.3a.64.64,0,0,0,.18-.25.68.68,0,0,0-.34-.9l-1.16-.54c.11-.3.23-.58.36-.85a5.75,5.75,0,0,1,.36-.65,2.4,2.4,0,0,1,.19-.29l.22-.27a8.77,8.77,0,0,1,1.12-1l.2-.16q.23-.16.45-.36a5.66,5.66,0,0,0,.65-.61,4.75,4.75,0,0,0,.93-1.58,4.19,4.19,0,0,0,.27-1.81,3.66,3.66,0,0,0-.57-1.71,3.59,3.59,0,0,0-.71-.82c.26-.81.51-1.66.8-2.68.08-.29.15-.57.22-.86l0,0A1.63,1.63,0,0,0,130,88a1.76,1.76,0,0,0,.47-1.23A1.73,1.73,0,0,0,130,85.6c.15-.69.27-1.26.37-1.81a76.41,76.41,0,0,0,1.33-11.24c0-.81.06-1.68.07-2.72a1.74,1.74,0,0,0,.95-1.6,1.71,1.71,0,0,0-1-1.52c-.06-1.69-.19-3.48-.4-5.48-.16-1.43-.38-2.93-.66-4.45a1.73,1.73,0,0,0-.65-3.22c-.27-1.17-.56-2.32-.87-3.42l0-.06a.39.39,0,0,0-.24-.23.42.42,0,0,0-.33,0,29.44,29.44,0,0,1-3.06,1.22c-.84.29-1.74.57-2.75.86-.45-2.34-1.06-4.79-1.84-7.47-.34-1.24-.75-2.49-1.15-3.7v0c-.46-1.35-.92-2.56-1.41-3.67a13.87,13.87,0,0,0-2.07-3.48,5.36,5.36,0,0,0-.77-.75,2.33,2.33,0,0,0-1.16-.55,1.56,1.56,0,0,0-.74.09,1.72,1.72,0,0,0-.6.37,2.81,2.81,0,0,0-.39.45c-.1.14-.19.28-.28.42A14.21,14.21,0,0,0,110,41.15a.16.16,0,0,0,.32,0,17.34,17.34,0,0,1,1.09-3.65,17.74,17.74,0,0,1,.83-1.69h0a13.44,13.44,0,0,1,1-1.55l.28-.36a1.58,1.58,0,0,1,.25-.26.47.47,0,0,1,.41-.14,1.16,1.16,0,0,1,.53.31,5,5,0,0,1,.58.61,11,11,0,0,1,1,1.51,17.2,17.2,0,0,1,.82,1.68c.54,1.23,1,2.49,1.42,3.56.3.81.6,1.64.89,2.45l.42,1.18.49,1.37c.68,1.91,1.37,3.89,2.1,5.83l-.11,0c-.89.25-1.86.49-3,.74-.31-.52-.67-1.11-1-1.69-.25-.41-.52-.82-.78-1.24l-.34-.52-.82-1.25-.9-1.37-.53-.76-.07-.08h0A7.28,7.28,0,0,0,112,43.44a8.62,8.62,0,0,0-1.79-.62,3.62,3.62,0,0,1-1.35-.6,3.28,3.28,0,0,1-.94-1.11,3.74,3.74,0,0,1-.27-.7.83.83,0,0,1,0-.15l-.17-.69c-.3-1.24-.58-2.36-.93-3.5a8.87,8.87,0,0,0-.31-.9,6.56,6.56,0,0,0-.44-.88,4.1,4.1,0,0,0-1.41-1.5,4,4,0,0,0-2-.53,6.56,6.56,0,0,0-1.9.28l-.29.1-.58.21a5.6,5.6,0,0,0-.85.42,5.52,5.52,0,0,0-1.43,1.26,5.1,5.1,0,0,0-.53.78,3.92,3.92,0,0,0-.37.89,3.81,3.81,0,0,0-.07,1.87,4.08,4.08,0,0,0,.11.76c.07.26.14.5.22.73a1,1,0,0,0,.16.26l.11.1.79.58h0c.06.35.12.69.19,1,0,.17.06.34.1.51l.07.36a.51.51,0,0,0,.6.4l.76-.14a6.1,6.1,0,0,0,1.07,1,3.1,3.1,0,0,0,1.66.56h.14a.41.41,0,0,0,.31-.14,4.17,4.17,0,0,0,.82-1.4,5.93,5.93,0,0,0,.3-1.54.17.17,0,0,0-.13-.17.16.16,0,0,0-.18.1,5.93,5.93,0,0,1-1.28,2.21,2.44,2.44,0,0,1-1.06-.5,4.69,4.69,0,0,1-1-1l0-.07a.52.52,0,0,0-.52-.19l-.57.12c0-.12-.07-.24-.1-.36-.08-.32-.17-.66-.27-1l-.06-.21a.44.44,0,0,0-.19-.25l-.64-.34-.4-.21h0s0,0,0,0l-.35-.62c-.07-.15-.14-.31-.2-.46.46-.09.94-.2,1.46-.33l.81-.22.06,0,.29-.07c.11,0,.23,0,.35,0a2.44,2.44,0,0,1,1.32.32,2.71,2.71,0,0,1,.58.43l0,0a.58.58,0,0,0,.38.13,1,1,0,0,0,.23-.06l.74-.38.21-.12.44,1.16a.48.48,0,0,0,.17.23l.44.29c.8.54,1.47,1,2.13,1.35A4.67,4.67,0,0,0,108,43.32l.32.2s0,0,0,0l0,.06a6.29,6.29,0,0,1-.78,2,2.23,2.23,0,0,1-1.62.91,1.55,1.55,0,0,1-.31,0c-.07,0-.13,0-.18.4h-.17c-.12-.39-.24-.39-.35-.4a2,2,0,0,1-.84-.24,2.06,2.06,0,0,1-1-1.36.49.49,0,0,0-.06-.17.66.66,0,0,0-.89-.22h0c-.74.41-1.34.78-2,1.19a12.86,12.86,0,0,0-1.91,1.51,3.56,3.56,0,0,0-.84,1.11,1.6,1.6,0,0,0-.11.25.47.47,0,0,1,0,.09l0,.1a1.66,1.66,0,0,0-.06.21l-.06.2c0,.13-.07.26-.09.39a19,19,0,0,0-.4,2.37c-.11.93-.18,1.68-.22,2.36v.16a26.64,26.64,0,0,1-2.66-4.34,37,37,0,0,1-2.19-5.48,2.58,2.58,0,0,0-.08-.26c0-.15-.1-.29-.14-.44l-.19-.71c0-.14-.08-.28-.11-.41-.1-.33-.2-.68-.27-1l-.34-1.44,0-.16c-.08-.44-.16-.88-.25-1.31L90,38.19a.88.88,0,0,1,.06-.45.62.62,0,0,1,.27-.34.48.48,0,0,1,.18-.07l.33,0a6.76,6.76,0,0,1,1.4.09,11.25,11.25,0,0,1,1.23.26A9.28,9.28,0,0,0,94,40.21a7,7,0,0,0,2.21,3.19.15.15,0,0,0,.21,0,.16.16,0,0,0,0-.22A7.64,7.64,0,0,1,94.8,40a8.7,8.7,0,0,1-.17-3.54l.08-.43a2.68,2.68,0,0,1,.07-.27c0-.05,0-.1,0-.16A4.56,4.56,0,0,1,95,35l.09-.24a.8.8,0,0,1,.11-.23l.07-.15a1.07,1.07,0,0,0,.07-.15L95.5,34l.1-.17a5.36,5.36,0,0,1,.38-.55A7.24,7.24,0,0,1,97.15,32l.25-.19a4.5,4.5,0,0,1,.45-.31l.36-.22.39-.19a6.89,6.89,0,0,1,6.53.36,3.28,3.28,0,0,1,.31.2l0,0,.13.1.22.15.41.36.08.07.47.47.41.52.38.56a8.35,8.35,0,0,1,1.11,3.45.15.15,0,0,0,.16.14.16.16,0,0,0,.16-.14,7.79,7.79,0,0,0-.71-3.86,7.87,7.87,0,0,0-2.57-3,7.68,7.68,0,0,0-7.7-.64,7.91,7.91,0,0,0-4.51,6.4,8,8,0,0,0,0,1,10.16,10.16,0,0,0-1.06-.45,7.71,7.71,0,0,0-1.52-.32l-.2,0h-.23a1.24,1.24,0,0,0-.52.12,1.63,1.63,0,0,0-.76.71,1.89,1.89,0,0,0-.22,1c0,.18,0,.35.05.51l0,.27,0,.13c0,.46.1.93.17,1.4l.27,1.5c.06.36.15.71.24,1.06,0,.15.08.29.11.45l.2.74c0,.17.1.33.15.49a2.41,2.41,0,0,0,.08.25,25.67,25.67,0,0,0,2.49,5.62,17.74,17.74,0,0,0,3.6,4.39c0,.44,0,1-.05,1.58,0,1.18,0,2.37.06,3.55-.1-.17-.21-.34-.34-.54-.68-1.08-1.44-2.11-2-2.89s-1.37-1.78-2.2-2.76a.58.58,0,0,0-.6-.2L91,53.22c-.06-.12-.11-.24-.16-.36s-.19-.44-.29-.65-.11-.24-.16-.35-.2-.44-.31-.65-.31-.63-.47-.94l0-.05c-.1-.19-.5-.29-.5-.29h0q-.93,0-2.07.06c-.45-1.51-.92-3-1.4-4.44-.42-1.23-1-2.84-1.64-4.44a.16.16,0,0,0-.2-.09.16.16,0,0,0-.11.18c.31,1.71.72,3.37,1,4.63s.74,2.78,1.16,4.22a.7.7,0,0,0-.58.59c-.09.67-.17,1.26-.23,1.81v0a.59.59,0,0,0,.07.37c.21.4.44.82.69,1.24s.47.82.72,1.23l0,0a.51.51,0,0,0,.28.2l.56.12c1.83,6.13,3.78,12.56,5.22,17.22,1.52,4.91,2.72,8.69,3.88,12.27a.26.26,0,0,0,.25.18h.08a.26.26,0,0,0,.18-.26l0-3a.21.21,0,0,0,0-.13.2.2,0,0,0-.14-.06l-.06,0-.52.2c-.79-2.85-1.64-5.87-2.67-9.49-1.36-4.71-4.4-14.94-5-16.73h.13l.39.06c.51,2.06,1,4.2,1.74,6.28.32.95.7,2.05,1.16,3.11a16.31,16.31,0,0,0,1.59,3l.12.16a8.31,8.31,0,0,0,1,1.21,4.92,4.92,0,0,0,.73.56,2.51,2.51,0,0,0,.94.36,2.16,2.16,0,0,0,.57,0l.46-.11a4.45,4.45,0,0,0,.84-.38A6.38,6.38,0,0,0,99.58,69a11.14,11.14,0,0,0,1.84-2.83,7.16,7.16,0,0,0,.48-1.63,12.82,12.82,0,0,0,.2-1.65.16.16,0,0,0-.32,0,11.63,11.63,0,0,1-.32,1.58,6.88,6.88,0,0,1-.54,1.48A10.38,10.38,0,0,1,99,68.42a5.33,5.33,0,0,1-1.22.87,3.56,3.56,0,0,1-.66.25,2.3,2.3,0,0,1-.32,0,.78.78,0,0,1-.26,0,2.32,2.32,0,0,1-1.08-.71,6.81,6.81,0,0,1-.77-1l-.15-.23a14.25,14.25,0,0,1-1.37-2.77c-.42-1.07-.78-2.07-1.09-3-.63-2-1.19-4.08-1.66-5.89l.44-.29.46-.31c.55.63,1.14,1.31,1.88,2.2s1.45,1.79,2.14,2.72c.37.5.7,1,1,1.41a10.83,10.83,0,0,1,.84,1.47,1.87,1.87,0,0,1,.25,1.44,1.38,1.38,0,0,1-.48.57,4.29,4.29,0,0,1-.71.42.16.16,0,0,0,.12.3,4.63,4.63,0,0,0,.83-.36,1.91,1.91,0,0,0,.71-.7,1.59,1.59,0,0,0,.16-1,3.8,3.8,0,0,0-.24-.92,12,12,0,0,0-.91-1.9l.45-4.2.07-.61c.07-.57.13-1.13.21-1.7s.2-1.48.33-2.28.28-1.54.45-2.23l.09-.33.06-.19a.75.75,0,0,1,0-.16l0-.09,0-.08a.93.93,0,0,0,0-.1.08.08,0,0,0,0,0,1.91,1.91,0,0,1,.2-.29l.11-.13a3.25,3.25,0,0,1,.26-.27A15.09,15.09,0,0,1,101,46.88c.48-.32.9-.61,1.29-.86a2.85,2.85,0,0,0,1.4,1.32,3.33,3.33,0,0,0,1.76.24h.17l.2,0a2.79,2.79,0,0,0,.4-.07,3.33,3.33,0,0,0,1.17-.51,2.73,2.73,0,0,0,.86-1,5.85,5.85,0,0,0,.52-2.26,4.76,4.76,0,0,0,1.27.43,7.22,7.22,0,0,1,1.54.48,6.69,6.69,0,0,1,2.57,1.94l0,0,0,0,0,.05,1.19,1.52.49.63c.26.34.52.68.79,1s.29.37.43.55c.28.36.57.73.86,1.08s.76.95,1.15,1.42l-1,.21-.58.13-1.64.31h0l0,0h0l0,0a.11.11,0,0,0,0,.06v.06h0l2.53,10.07L120.88,74l.84,3.25c.58,2.29,1.18,4.66,1.8,7l.27,1.06c.46,1.76.92,3.53,1.39,5.29a9.9,9.9,0,0,0-4.39,1.59,8.83,8.83,0,0,0-3.21,3.94l-.22.59a4,4,0,0,0-.14.41,1.66,1.66,0,0,1-.06.21l0,.2c0,.14-.08.28-.11.41l-.13.59c-.18.8-.37,1.58-.55,2.32a18.2,18.2,0,0,1-.71,2.22,9,9,0,0,1-.5,1.05c-.13.22-.26.44-.39.64-.37-.3-.73-.57-1-.8.12-.64.24-1.29.34-1.94.15-.91.26-1.66.35-2.37a41,41,0,0,0,.35-4.73,17,17,0,0,0,.67-2.66,21,21,0,0,0,.28-2.81,26.23,26.23,0,0,0,0-2.81c-.05-.72-.14-1.45-.25-2.16l.09-.07a3.92,3.92,0,0,0,.37-.34,4.6,4.6,0,0,0,1-1.72,9.7,9.7,0,0,0,.35-3.71c0-.42-.08-.85-.12-1.26l-.06-.51a16.77,16.77,0,0,0-.32-1.71l0-.07c-.28-1.24-.61-2.43-.9-3.43-.6-2.12-1.28-4.32-2.07-6.73a.16.16,0,0,0-.31.09c.5,2,1.09,4.42,1.66,6.84.25,1.09.51,2.25.74,3.42a15.45,15.45,0,0,1,.25,1.68l0,.51c0,.42.06.82.07,1.23a8.37,8.37,0,0,1-.41,3.24,3.35,3.35,0,0,1-.79,1.25,3.08,3.08,0,0,1-.26.24l-.13.09-.2.14a8,8,0,0,1-.69.43,17,17,0,0,1-3.09,1.25,20.4,20.4,0,0,1-3.27.72,11.33,11.33,0,0,1-3.26,0,7,7,0,0,1-2.92-1.19A6.61,6.61,0,0,1,100,83.75a4,4,0,0,1-.45-.63,4.57,4.57,0,0,1-.35-.7,7.19,7.19,0,0,1-.52-3.16A6.15,6.15,0,0,1,99,77.68a4.41,4.41,0,0,1,.3-.74l.13-.27c.09-.17.18-.35.26-.53.51-1.08,1-2.19,1.44-3.22,1.07-2.52,1.91-4.59,2.64-6.53a.14.14,0,0,0-.08-.2.16.16,0,0,0-.21.07l-3.11,6.3c-.5,1-1,2.07-1.59,3.11l-.27.51-.14.25a6.39,6.39,0,0,0-.4.88,7.51,7.51,0,0,0-.41,1.86A8.28,8.28,0,0,0,98,82.9a6,6,0,0,0,.42.88,6.08,6.08,0,0,0,.55.8c.19.23.38.44.58.64A14.36,14.36,0,0,0,99.25,87a17.35,17.35,0,0,0-.14,2.42,18.17,18.17,0,0,0,.68,4.73c-.06.85-.06,1.67-.05,2.37s0,1.53.09,2.43.12,1.7.19,2.42c.06.56.13,1.16.22,1.92-.53.24-1,.45-1.4.67-.62-.94-1.26-1.94-1.83-3a32.65,32.65,0,0,1-1.64-3.31l-.08-.18a15.74,15.74,0,0,0,1.22-1.15,4.53,4.53,0,0,0,.73-1,5.79,5.79,0,0,0,.22-.62,1.8,1.8,0,0,1,.05-.19c0-.13.06-.27.08-.41a9.78,9.78,0,0,0,0-2.32,19,19,0,0,0-.37-2.22c-.08-.31-.16-.69-.26-1.07l-.3-1.07a.54.54,0,0,0-.24-.33.55.55,0,0,0-.75.19L95,88.41l-.28.47,0-.12.15-.6.09-.59a11.65,11.65,0,0,0,.08-2.43,10.34,10.34,0,0,0-.14-1.2,8.79,8.79,0,0,0-.26-1.21.7.7,0,0,0-.25-.36.66.66,0,0,0-.94.17L91.89,84.8l-.17.24c-.22.3-.42.57-.64.82s-.33.35-.51.54c-.28-.61-.59-1.19-.91-1.74a13.73,13.73,0,0,0-1.33-1.91l.72-.13a.31.31,0,0,0,.2-.16l.51-1.06.12-.25c.22-.44.42-.88.63-1.32a.45.45,0,0,0-.2-.58l-.37-.19c.17-.37.35-.73.52-1.09s.24-.52.37-.78a1.21,1.21,0,0,0,0-.18.54.54,0,0,0-.12-.42.52.52,0,0,0-.37-.22h0l-1.92-.21-1-.1-3.38-1.25C83,74.4,81.82,74,80.63,73.57a.65.65,0,0,0-.65.14l-.85.82-.2.2-.21-.31a5.55,5.55,0,0,1-.29-.48l0,0-.08-.16a2.4,2.4,0,0,1-.2-.39,2.39,2.39,0,0,0-.13-.28c0-.1-.09-.2-.12-.29l-.21-.59a9.2,9.2,0,0,1,0-4.86,17.89,17.89,0,0,1,2-4.64c.38-.63.77-1.24,1.17-1.82l.53,1.3a.15.15,0,0,0,.15.1.16.16,0,0,0,.15-.11l.45-1.26c0-.08,0-.15.08-.22a5.1,5.1,0,0,0,.19-.55,7,7,0,0,0,.33-1.77.15.15,0,0,0-.09-.16h-.07a.11.11,0,0,0-.08,0,13.87,13.87,0,0,0-2,1.76,18.54,18.54,0,0,0-1.72,2.08A14.63,14.63,0,0,0,76.32,67a9.83,9.83,0,0,0-.3,2.81,8.2,8.2,0,0,0,.58,2.77,8.32,8.32,0,0,0,1.47,2.38l.31.33-1,1-.07.09a.63.63,0,0,0-.1.44.61.61,0,0,0,.24.38l2,1.43c.15.49.3.9.46,1.29a6,6,0,0,0,.33.73,2.38,2.38,0,0,0,.24.37,1.3,1.3,0,0,0,.39.35,6.87,6.87,0,0,0,1.43.55h.05l.15,0c0,.8.12,1.6.19,2.37,0,.4.08.79.11,1.17,0,.15,0,.29,0,.42a2.91,2.91,0,0,1,0,.38c0,.28-.09.54-.15.83a7.63,7.63,0,0,0-.17,1,.68.68,0,0,1,0,.15l-1.12-.28-1.48-.35a.64.64,0,0,0-.48.1l-1.22.81s0,0,0,0a2.56,2.56,0,0,0-.55.54,2.11,2.11,0,0,0-.37.81.15.15,0,0,0,0,.13.14.14,0,0,0,.11.07,1.9,1.9,0,0,0,.74,0v0l.21.92,0,0a1.41,1.41,0,0,0-.41.43,1.64,1.64,0,0,0-.21.69.17.17,0,0,0,.11.17,1.38,1.38,0,0,0,.72.07l.17,0v0L79,93.71s0,0,0,.06a.67.67,0,0,0,.86.41l1.56-.56.27,1.62c.13.76.28,1.58.49,2.43a8.82,8.82,0,0,0,.35,1.23c.14.38.31.75.47,1.1l0,0c.36.78.72,1.5,1.08,2.2l0,0a.34.34,0,0,0,.31.19.32.32,0,0,0,.16,0l1.4-.71,1.4-.74a.16.16,0,0,0-.12-.29c-.52.17-1,.34-1.49.52l-1.13.41-.09-.24c-.22-.56-.44-1.13-.65-1.7-.15-.4-.28-.78-.39-1.12a9.1,9.1,0,0,1-.24-1.13c-.07-.4-.13-.81-.19-1.18L82.9,95c-.08-.56-.15-1.13-.23-1.69l-.09-.72a.31.31,0,0,0,0-.13.65.65,0,0,0-.84-.41l-1.61.55c-.26-1.07-.54-2.19-.83-3.33h0l.6-.43,1.22.24,1.27.23h0l.93,1.42c.32.5.66,1,1,1.65s.69,1.19.93,1.7c.07.14.12.29.17.42l.09.27c0,.07,0,.13,0,.19l.29.95a.16.16,0,0,0,.31-.07L86,94.76c0-.12,0-.23-.06-.36a4.94,4.94,0,0,0-.14-.5A14.54,14.54,0,0,0,85,92c-.29-.63-.62-1.24-.9-1.77-.2-.37-.4-.74-.59-1.06a2.75,2.75,0,0,0,.16-.42,2.81,2.81,0,0,0,.14-.6,7.8,7.8,0,0,1,.11-.86,6.89,6.89,0,0,0,.1-1,5.24,5.24,0,0,0,0-.55c0-.17-.05-.33-.09-.49A20.19,20.19,0,0,0,83,82l.91.21a.17.17,0,0,0,.09-.32c-.51-.19-1-.38-1.39-.56L81.89,81a2.88,2.88,0,0,1-.6-.35.45.45,0,0,1-.15-.16L81,80.23c-.08-.21-.16-.44-.23-.68a14.08,14.08,0,0,1-.37-1.43.57.57,0,0,0-.17-.28l-1.49-1.21.57-.51.44.32.37.25a.15.15,0,0,0,.21,0,.18.18,0,0,0,0-.22l-.44-.5-.18-.2L80,75.5l.57-.52,3.08,1.12c1.12.4,2.31.82,3.48,1.22h0a.35.35,0,0,0,.14,0l1,.06,1.18.08c-.21.52-.43,1.06-.63,1.59v0a.49.49,0,0,0,.26.62l.44.18c-.12.31-.23.63-.34.94l-.08.23c-.12.34-.24.68-.35,1l-1.46.5a.17.17,0,0,0,.08.32l.59-.1a12.29,12.29,0,0,0,.54,2.37,24.59,24.59,0,0,0,.93,2.42l-.27.31c-.1.12-.19.25-.28.38a3.8,3.8,0,0,0-.58,1.41,7.56,7.56,0,0,0,0,2.53.16.16,0,0,0,.32,0,9.28,9.28,0,0,1,.61-2.63,3.22,3.22,0,0,1,.73-1c.3-.3.64-.6,1-.88l.12-.11c.31-.28.64-.57,1-.89a11.09,11.09,0,0,0,.91-1.08l0,0,.79-1.06c0,.24.07.48.1.71a15,15,0,0,1,.1,2.2,11,11,0,0,1-.3,2.19,10.75,10.75,0,0,1-.77,2.1.18.18,0,0,0,0,.2.16.16,0,0,0,.2,0,10.12,10.12,0,0,0,1-.93c.28-.28.54-.58.79-.88L95,90c.26-.31.51-.63.76-.94l.08-.11,0,0c.06.29.11.59.16.88.13.74.21,1.43.26,2.08a9.37,9.37,0,0,1,0,2,2.56,2.56,0,0,1,0,.27c0,.07,0,.13,0,.17l-.12.37,0,.05a3.47,3.47,0,0,1-.5.72c-.36.43-.77.83-1.21,1.26l-.38.38a11,11,0,0,0-1.34,1.58c0,.08-.1.17-.15.28a.56.56,0,0,1,0,.08c0,.07-.06.13-.09.21l0,.07c0,.08,0,.15-.07.23v0l-.06.3a5.63,5.63,0,0,0,0,1.16c0,.31,0,.62.06.92s.06.83.06,1.24a.16.16,0,0,0,.14.17.17.17,0,0,0,.18-.13,13,13,0,0,0,.24-1.74c0-.15,0-.29,0-.44a7.54,7.54,0,0,1,.18-1,1.21,1.21,0,0,1,0-.18l.11-.23a.61.61,0,0,1,.07-.1l0-.08a.86.86,0,0,1,.14-.18,5.75,5.75,0,0,1,.67-.71A15.62,15.62,0,0,0,96,101.72a12.75,12.75,0,0,0,2.45,2.47c-.29.15-.58.32-.89.52l0,0a3.86,3.86,0,0,0-.51.39,3.31,3.31,0,0,0-.26.27l-.21.29A4.08,4.08,0,0,0,96,107c0,.19-.07.4-.1.64v0a1.89,1.89,0,0,0,0,.36,1.32,1.32,0,0,0,.15.59,1.6,1.6,0,0,0,.34.4,2.45,2.45,0,0,0,.31.23l.15.09.21.1a1.64,1.64,0,0,0,.4.12,4.41,4.41,0,0,0,1.35,0,4.28,4.28,0,0,0,1.31-.37,2.35,2.35,0,0,0,.37-.24,2.68,2.68,0,0,0,.28-.3,4.6,4.6,0,0,0,.38-.55l.06-.11c.08-.12.15-.24.23-.35a.81.81,0,0,1,.18-.22l0,0,1-.51c.3-.17.66-.38,1-.63a3.24,3.24,0,0,0,.53-.42,1.66,1.66,0,0,0,.45-.79,2.79,2.79,0,0,0,.06-1.1,6.27,6.27,0,0,1,1-.18,6.16,6.16,0,0,1,1.2,0,7.63,7.63,0,0,1,1.19.27,8.62,8.62,0,0,1,.87.36,1.14,1.14,0,0,0-.06.25,4.13,4.13,0,0,0-.07,1.2,1.9,1.9,0,0,0,.2.71,1.39,1.39,0,0,0,.55.6h0l0,0h0a3.47,3.47,0,0,0,.42.22l.15.07a6.59,6.59,0,0,1-.24,1.67,6,6,0,0,1-.94,1.82,8.35,8.35,0,0,1-.66.81,10.28,10.28,0,0,1-.74.73,8.81,8.81,0,0,1-1.66,1.18,7.64,7.64,0,0,1-3.86.89,11.52,11.52,0,0,1-2-.28,13.58,13.58,0,0,1-2-.57,17,17,0,0,1-6.73-4.83,48.78,48.78,0,0,1-5.07-7,.16.16,0,0,0-.28.15,32.21,32.21,0,0,0,2,3.94,31,31,0,0,0,2.52,3.65,18.94,18.94,0,0,0,3.17,3.16,14.47,14.47,0,0,0,4,2.21,14.68,14.68,0,0,0,2.17.62,12.49,12.49,0,0,0,2.26.26h0a8.29,8.29,0,0,0,4.4-1.22,7.43,7.43,0,0,0,.68-.46,4.64,4.64,0,0,0,2.19,1,5.26,5.26,0,0,0,3-.46,7,7,0,0,0,2.34-1.81,8.16,8.16,0,0,0,1.32-2.07h.16a1.79,1.79,0,0,0,.4-.09,1.56,1.56,0,0,0,.89-.89,1.65,1.65,0,0,0,.09-.39,3.69,3.69,0,0,0,0-1.2v0a16.58,16.58,0,0,0,.91-1.63A17.08,17.08,0,0,0,119.32,104.23ZM104.79,38.72l-.26-.23-.29-1L104,36.8l0-.09a.57.57,0,0,0-.79-.24l-.81.44-.35.2a3.11,3.11,0,0,0-.53-.32,3.26,3.26,0,0,0-1.91-.29,3.85,3.85,0,0,0-.48.11,3,3,0,0,0-.4.16l0,0-.76.35c-.45.21-.87.43-1.27.65a3.71,3.71,0,0,1,.27-1.4A4.41,4.41,0,0,1,97.83,35a5.36,5.36,0,0,1,1.32-1,4.09,4.09,0,0,1,.74-.3,4.84,4.84,0,0,1,.51-.14l.29-.08a5.53,5.53,0,0,1,1.6-.15,2.86,2.86,0,0,1,1.38.45,3,3,0,0,1,1,1.09,5.52,5.52,0,0,1,.32.73c.09.24.17.48.24.74l0,.06c.32,1.11.59,2.24.87,3.41C105.68,39.5,105.26,39.12,104.79,38.72ZM90.34,54.39c-.41.28-.82.55-1.23.84a.69.69,0,0,0-.17.17l-.6-.27-.22-.1-.43-.18-.42-.17c-.16-.41-.33-.81-.48-1.15s-.32-.73-.49-1.09c.06-.35.12-.71.17-1.06.8-.06,1.54-.13,2.27-.21h0c.12.2.25.39.38.58s.27.4.41.59.15.21.22.31l.42.58c.08.11.16.21.23.32l.4.51Zm38.9,32.87a.64.64,0,0,1-.47.21.63.63,0,0,1-.48-.19.67.67,0,0,1-.21-.48.67.67,0,0,1,1.14-.52.73.73,0,0,1,.21.48A.71.71,0,0,1,129.24,87.26Zm1.17-14.91h0c-.11,1.9-.28,3.77-.49,5.54s-.53,3.71-.89,5.5c-.09.46-.19,1-.32,1.54h-.19c-.33-1.68-.72-3.48-1.19-5.49-.59-2.56-1.21-5.08-1.84-7.49-.08-.27-.15-.55-.22-.83h0a1,1,0,0,0,.19-.17,1.76,1.76,0,0,0,.47-1.23l.16,0,1.79-.28c.63-.1,1.24-.21,1.76-.31a1.75,1.75,0,0,0,.87.67C130.48,70.76,130.45,71.58,130.41,72.35Zm-6-4.16c-.34-1.24-.67-2.4-1-3.52h0c-.63-2.11-1.22-4-1.8-5.73a1.92,1.92,0,0,0,.42-.28c.48.62.89,1.14,1.28,1.62s.65.79,1,1.18l.24.27c.34.42.7.83,1,1.23l.18.21c.83,1,1.7,1.91,2.51,2.81l1.31,1.39a1.78,1.78,0,0,0-.24.78c-.5.14-1.09.3-1.67.48s-1.21.36-1.74.53l-.15,0A1.7,1.7,0,0,0,124.42,68.19Zm.49,1.69a.69.69,0,0,1-.19.49.65.65,0,0,1-.47.22.69.69,0,0,1-.48-.19.7.7,0,0,1-.22-.49.73.73,0,0,1,.19-.49.67.67,0,0,1,1.17.46ZM131,67.54a.7.7,0,0,1,.68.68.69.69,0,0,1-.66.71h0a.66.66,0,0,1-.48-.19.69.69,0,0,1,0-1A.7.7,0,0,1,131,67.54ZM129.35,54.8a.74.74,0,0,1,.49-.22.7.7,0,1,1-.67.71A.68.68,0,0,1,129.35,54.8Zm.3,2.18c.21,1.35.39,2.78.55,4.37s.25,3.38.29,5.06c-.38-.44-.81-.92-1.23-1.38-.82-.88-1.69-1.83-2.59-2.74l-.19-.2c-.37-.38-.74-.77-1.13-1.14l-.26-.27c-.35-.35-.71-.71-1.08-1.06s-1-.93-1.58-1.48a2,2,0,0,0,.16-.59c1.24-.3,2.33-.59,3.33-.87.8-.23,1.6-.47,2.38-.72a1.68,1.68,0,0,0,.38.56A1.66,1.66,0,0,0,129.65,57Zm-4.73,28.31L124.57,84c-.62-2.28-1.27-4.6-1.9-6.85-.3-1.08-.6-2.17-.91-3.26L116,53.66l1.48-.21.58-.09,1.07-.18c1.23-.23,2.31-.45,3.29-.68,1.21-.29,2.27-.57,3.26-.87.48-.15,1-.32,1.61-.52s.79-.29,1.12-.42c.26,1.08.47,2,.65,2.88a1.75,1.75,0,0,0-.46.35,1.7,1.7,0,0,0-.46,1.2c-.81.13-1.63.28-2.46.44-1,.2-2.11.44-3.36.72a1.35,1.35,0,0,0-.26-.32,1.67,1.67,0,0,0-1.21-.48,1.73,1.73,0,0,0,0,3.45h.16c.35,1.8.76,3.73,1.26,5.88.26,1.14.54,2.31.85,3.57a1.37,1.37,0,0,0-.17.17,1.75,1.75,0,0,0,.06,2.43,1.62,1.62,0,0,0,.88.45v0l.22.82c.63,2.42,1.33,4.92,2.07,7.43.59,2,1.14,3.76,1.68,5.39a1.76,1.76,0,0,0-.44,2.65l.28,1c-.34,1.23-.66,2.32-1,3.31C126.16,89.81,125.53,87.51,124.92,85.29Zm-3.33-28.07a.68.68,0,0,1-.18.49.74.74,0,0,1-.48.22h0a.7.7,0,0,1-.48-.19.69.69,0,0,1-.21-.49.68.68,0,0,1,.18-.49.75.75,0,0,1,.5-.22.68.68,0,0,1,.46.19A.69.69,0,0,1,121.59,57.22Zm-17.37,38.3c0,.44-.09.82-.15,1.17s-.12.68-.23,1.13l-.09.35c-.17.66-.35,1.36-.46,2.07a17.1,17.1,0,0,0-.19,2.5v.07c0,.24.07.46.11.67s.06.33.08.49a2.26,2.26,0,0,1,0,.88.63.63,0,0,1-.11.21l-.37.27c-.26.17-.56.34-.94.55l-.74.39-.31.16a2,2,0,0,0-.55.56l0,0c-.1.14-.18.28-.26.41l-.07.11a3.1,3.1,0,0,1-.27.4l-.11.12-.11.07a3.44,3.44,0,0,1-1.8.22l-.15,0,0,0h0l-.1-.06a1,1,0,0,1-.17-.13,1.36,1.36,0,0,1,0-.16,5,5,0,0,1,.08-.51,2.34,2.34,0,0,1,.32-.84,1.92,1.92,0,0,1,.63-.6c.31-.21.66-.4.93-.55.65-.35,1.32-.69,2-1a.63.63,0,0,0,.36-.68c-.13-.92-.24-1.68-.32-2.37s-.18-1.62-.25-2.38-.14-1.66-.18-2.38c0-.36,0-.78,0-1.2s0-.85,0-1.19a.44.44,0,0,0,0-.16,19.91,19.91,0,0,1-.6-2.25,17.32,17.32,0,0,1-.32-2.32,20.4,20.4,0,0,1,0-2.35c0-.58.07-1.08.13-1.52.15.13.31.26.46.37a8.37,8.37,0,0,0,3.44,1.46,12.45,12.45,0,0,0,1.65.17c0,.31,0,.59-.08.86-.06.49-.12,1-.21,1.54s-.17,1-.3,1.52a9.42,9.42,0,0,1-.47,1.42.33.33,0,0,0,0,.17v0A15.82,15.82,0,0,1,104.22,95.52Zm5,.35a15.35,15.35,0,0,0-.05,2.45h0l.15,2.37c0,.71,0,1.45,0,2.2l-.15.38-.18.51h0a2.52,2.52,0,0,0-.56-.57,3.17,3.17,0,0,0-1.54-.62,3,3,0,0,0-.42,0,3,3,0,0,0-1.24.26,2.48,2.48,0,0,0-.8.55l0-.16c0-.19-.07-.36-.09-.52a17.69,17.69,0,0,1,.1-2.3c.08-.65.22-1.3.37-2l.07-.34a13.32,13.32,0,0,0,.29-2.49,16.47,16.47,0,0,0,0-2.4,9.57,9.57,0,0,0,.38-1.48,14.86,14.86,0,0,0,.21-1.59,24.77,24.77,0,0,0,.08-2.48,12.84,12.84,0,0,0,1.62-.11c.55-.07,1.12-.18,1.75-.32,0,.93,0,1.89.06,2.85.06,1.11.19,2.25.38,3.49A16.59,16.59,0,0,0,109.18,95.87Zm4.55,16.42h0a10.08,10.08,0,0,1-2.12,1.39,5.77,5.77,0,0,1-2.34.56,6,6,0,0,1-1.75-.23,10.25,10.25,0,0,0,2-2.36,6.55,6.55,0,0,0,.83-2.16,5.58,5.58,0,0,0,.06-1.64l.09.05a7,7,0,0,1,.67.32,1.64,1.64,0,0,1,.27.17,1.44,1.44,0,0,1,.14.22l.13.26a4.24,4.24,0,0,0,.37.67,1.26,1.26,0,0,0,.28.31l.11.09.18.1c.15.09.31.17.47.25a6.74,6.74,0,0,0,1,.39,7.81,7.81,0,0,0,1,.28l.12,0C114.69,111.45,114.22,111.89,113.73,112.29Zm2.29-2.56a.64.64,0,0,1,0,.09l0,0a.26.26,0,0,1-.09.06l-.07,0h-.11a2.63,2.63,0,0,1-.39-.06,4.8,4.8,0,0,1-.83-.23,5.4,5.4,0,0,1-.82-.33l-.37-.19-.11-.06,0-.06a3.08,3.08,0,0,1-.25-.46c0-.1-.11-.21-.16-.32l0-.06a2,2,0,0,0-.38-.52,2.85,2.85,0,0,0-.5-.33h0a7,7,0,0,0-.92-.43l-.43-.19c-.15-.06-.28-.13-.34-.16l0,0a.15.15,0,0,1-.09-.09,1.09,1.09,0,0,1-.07-.25,3,3,0,0,1,0-.82,7.45,7.45,0,0,1,.22-.91l.15-.45.19-.48a.66.66,0,0,0,0-.21c0-.72,0-1.49-.12-2.42l-.23-2.36a15.19,15.19,0,0,1,0-2.3,16.75,16.75,0,0,1,.27-2.29v0a.43.43,0,0,0,0-.16c-.11-.54-.24-1.13-.34-1.73s-.19-1.24-.26-1.75-.14-1.16-.19-1.77c0-.35-.07-.72-.1-1.12.46-.11.92-.24,1.36-.38a15.77,15.77,0,0,0,3.31-1.42c.25-.14.49-.3.72-.46,0,.58,0,1.2,0,1.92,0,.91-.06,1.84-.14,2.74a22.88,22.88,0,0,1-.42,2.7,18,18,0,0,1-.77,2.56l0,.19a43.35,43.35,0,0,1-.5,4.67c-.15.93-.27,1.65-.4,2.32-.16.86-.31,1.62-.46,2.32a.63.63,0,0,0,.25.66l1.48,1.17.35.3a4,4,0,0,1,.29.29c.2.22.4.45.6.7s.38.49.53.72l.21.35a1.24,1.24,0,0,1,.1.29A2.22,2.22,0,0,1,116,109.73Zm1.45-3.25c-.13.41-.26.82-.41,1.25-.08-.15-.17-.27-.24-.39s-.38-.53-.61-.82-.44-.52-.67-.76a3.54,3.54,0,0,0-.39-.38l-.22-.19c.2-.19.38-.38.54-.56a9,9,0,0,0,.75-1,12.87,12.87,0,0,0,1-2.27c.27-.73.49-1.47.73-2.35l.16-.58c0-.12.07-.24.1-.35s0-.14.06-.2a1.72,1.72,0,0,0,.07-.21,3.18,3.18,0,0,1,.1-.33l.21-.53a9.34,9.34,0,0,1,2.61-3.57,14,14,0,0,1,3.81-2.14c.09.32.17.63.25,1l.06.21a8.52,8.52,0,0,0-2,.62h0a7.3,7.3,0,0,0-2.15,1.53,8.15,8.15,0,0,0-1.52,2.22,10.66,10.66,0,0,0-.82,2.54c-.09.52-.16,1-.22,1.49s-.09.68-.14,1c-.12.78-.26,1.58-.43,2.43S117.69,105.76,117.47,106.48Z"/><polygon class="cls-15" points="138.77 80.9 139.81 80.55 138.77 80.9 138.77 80.9"/><path class="cls-15" d="M142.25,80.74l-4.94-2.83a.13.13,0,0,0-.12,0,.12.12,0,0,0-.07.11l-.05.54a.14.14,0,0,0,.06.13l1.42.81-.17,1.82-1.55.52a.13.13,0,0,0-.08.11l-.09.9a.13.13,0,0,0,.05.11.11.11,0,0,0,.08,0h0l5.59-1.89a.13.13,0,0,0,.09-.11.15.15,0,0,0-.07-.13Zm-3.14.34.11-1.2.32.18,1,.54Z"/><path class="cls-15" d="M66.32,78.92l5.35,1.94a.16.16,0,0,0,.12,0,.11.11,0,0,0,0-.12l0-.54a.14.14,0,0,0-.09-.12l-1.53-.55L70,77.68l1.43-.77a.15.15,0,0,0,.07-.13l-.07-.89a.12.12,0,0,0-.07-.11.11.11,0,0,0-.08,0h0l-5.18,2.83a.11.11,0,0,0-.06.12.12.12,0,0,0,.08.12Zm3-.87.09,1.2-.35-.12-1-.37Z"/><path class="cls-15" d="M66.5,63.22l4.89,2.91a.11.11,0,0,0,.12,0,.14.14,0,0,0,.07-.1l.06-.55a.14.14,0,0,0-.06-.13l-1.4-.83.2-1.82,1.55-.49A.13.13,0,0,0,72,62.1l.1-.89a.12.12,0,0,0,0-.11.11.11,0,0,0-.08,0h0l-5.62,1.79a.11.11,0,0,0-.09.11.11.11,0,0,0,.06.12Zm3.15-.28-.14,1.2L69.19,64l-.94-.56Z"/></svg>